<svg id="Layer_1" data-name="Layer 1" xmlns="http://www.w3.org/2000/svg" viewBox="0 0 148.92 132.58"><defs><style>.cls-1{fill:#231f20;}</style></defs><title>Untitled-3</title><path class="cls-1" d="M148.92,132.58H0l3.89-21.69a7.4,7.4,0,0,1,1-3.88,6,6,0,0,1,1.78-2.1,22.79,22.79,0,0,1,3.72-1.46c1.94-.65,3.13-1.08,3.56-1.3l24.6-10a1.87,1.87,0,0,0,1.3-.33v-.64q8.09-3.24,10-7.13c1.08-1.5,1.95-1.94,2.59-1.29l.33.32c.21-.64.53-1.67,1-3.07s.75-2.54,1-3.4c.21-.65.54-.54,1,.32l-.32-2.26L55,70.75l-1.29-1.29c-.65-.65-1.19-2-1.62-4.21a13,13,0,0,0-1-3.56,11.89,11.89,0,0,1-1-1.14,19.31,19.31,0,0,1-1.46-2.1,13.8,13.8,0,0,1-1.46-3.88,54.69,54.69,0,0,1-2.1-8.75q-.48-3.55.49-4.85h.64A10.12,10.12,0,0,1,45.65,39c-.22-.65-.54-1.89-1-3.73A20,20,0,0,1,44,31.58Q44,16,47.59,10.21q4.53-7.44,12.3-9.06A68.18,68.18,0,0,1,72.19,0q7.77-.16,12,1.13a19.56,19.56,0,0,1,5.5,2.91c3.89,2.38,6.58,4.86,8.1,7.45Q101,16.69,101,31.58a83.42,83.42,0,0,1-1.29,10,2.2,2.2,0,0,1,1.62-.65c.64.86.81,2.48.48,4.85a54.69,54.69,0,0,1-2.1,8.75,14.12,14.12,0,0,1-1.46,3.88,21,21,0,0,1-1.45,2.1,13.2,13.2,0,0,1-1,1.14,13,13,0,0,0-1,3.56c-.43,2.16-1,3.56-1.62,4.21l-1.29,1.29-.32,4.53a1.85,1.85,0,0,0,.64,1.3h.33a4.91,4.91,0,0,0,.32,1.29c.21.65.49,1.46.81,2.43a16.47,16.47,0,0,0,.81,2.11.94.94,0,0,0,.32.64q0,.33.33,0h.32c.65-.21,1.3.22,1.94,1.3l.33.32V85a26.48,26.48,0,0,0,9.71,6.79,1,1,0,0,1,.65.33h.64l24.93,10c.65.22,1.83.65,3.56,1.3a24.45,24.45,0,0,1,3.4,1.46,6.09,6.09,0,0,1,1.78,2.1,7.4,7.4,0,0,1,1,3.88Z"/></svg>