<svg id="Layer_1" data-name="Layer 1" xmlns="http://www.w3.org/2000/svg" viewBox="0 0 159.64 102.73"><defs><style>.cls-1{fill:#231f20;}</style></defs><title>ico_mail</title><path class="cls-1" d="M159.64,28.81V94.4a7.21,7.21,0,0,1-2.77,5.55,8.28,8.28,0,0,1-5.9,2.78H8.68A8.25,8.25,0,0,1,2.78,100C.92,98.1,0,96.25,0,94.4V28.81c0-2.09,1.15-2.66,3.47-1.74l68,35.75a20.92,20.92,0,0,0,16.66,0l68-35.75C158.48,26.15,159.64,26.72,159.64,28.81Z"/><path class="cls-1" d="M5.21,9.37Q-.7,6.25.35,2.43.35,0,4.86,0H155.13q6.6,0,3.47,5.55a9.61,9.61,0,0,1-4.16,3.82q-.7.35-34,18.05-31.59,17-32.28,17.7a18.4,18.4,0,0,1-8.33,1.73,21.48,21.48,0,0,1-8.33-1.73q-.69-.69-32.27-17.7Q5.91,9.72,5.21,9.37Z"/></svg>
