<svg id="Layer_1" data-name="Layer 1" xmlns="http://www.w3.org/2000/svg" viewBox="0 0 130.72 130.72"><defs><style>.cls-1{fill:#231f20;}</style></defs><title>ico_phone</title><path class="cls-1" d="M130.72,103.08a27.82,27.82,0,0,1-1,6.51,29.26,29.26,0,0,1-2,6.5q-2,5.2-11.39,9.76a33,33,0,0,1-17.23,4.87,26.73,26.73,0,0,1-4.88-.32,44.79,44.79,0,0,1-5.2-1.3c-.87-.22-2.39-.65-4.55-1.3a2.45,2.45,0,0,1-1-.33c-.44-.21-1.09-.49-1.95-.81s-1.63-.6-2.28-.81a19,19,0,0,0-2.76-1.14,8.89,8.89,0,0,0-1.79-.49Q63.74,120,58.53,116.41A137.83,137.83,0,0,1,34.14,96.58Q20.81,83.25,14,71.87A69.85,69.85,0,0,1,6.5,55.61a29.44,29.44,0,0,1-1.95-4.56c-.43-1.51-1-3.25-1.62-5.2a7.58,7.58,0,0,0-.65-1.79,24.2,24.2,0,0,1-1-2.44C.86,39,.54,37.18.32,36.1A24.49,24.49,0,0,1,0,31.22,38.6,38.6,0,0,1,4.55,14Q10.09,4.56,14.63,2.6A22.87,22.87,0,0,1,20.81.65Q26.66,0,27.32,0h1.95q1.95,1,5.2,7.15a5.61,5.61,0,0,1,.81,1.3l1,2a16.11,16.11,0,0,1,.81,1.95,59.17,59.17,0,0,1,3.25,5.85l2.93,4.88.32.32a4.79,4.79,0,0,1,.65.82,8.91,8.91,0,0,1,.65,1.13,20.89,20.89,0,0,1,2,3.26,10.84,10.84,0,0,1,.65,2.6q0,1.62-2.61,4.88A30.57,30.57,0,0,1,39,41a45.76,45.76,0,0,0-5.53,5.21c-2,1.52-2.92,2.92-2.92,4.22a4.82,4.82,0,0,0,.65,2,2.4,2.4,0,0,0,.32,1,2.5,2.5,0,0,1,.33,1c.21,0,.43.27.65.81a15.78,15.78,0,0,0,.65,1.46c.65,1.09,1.08,1.63,1.3,1.63A92.43,92.43,0,0,0,50.4,80,93.47,93.47,0,0,0,72.19,96.25a7.42,7.42,0,0,1,2,1,8.86,8.86,0,0,0,2.28,1.3,4.06,4.06,0,0,0,2,1,4.62,4.62,0,0,0,1.95.32c1.3,0,2.71-.86,4.23-2.6a30.87,30.87,0,0,0,4.87-5.85,45.79,45.79,0,0,1,5.21-5.53q2.59-2.59,4.55-2.6a3.74,3.74,0,0,1,2.6.65,19.65,19.65,0,0,1,3.58,1.95,8.67,8.67,0,0,1,2.27,1.62l4.88,2.93A27.68,27.68,0,0,0,115.44,92a30,30,0,0,1,2.93,1.62l5.2,2.6q6.17,3.59,6.83,4.88A4.68,4.68,0,0,1,130.72,103.08Z"/></svg>