<svg id="Layer_1" data-name="Layer 1" xmlns="http://www.w3.org/2000/svg" viewBox="0 0 84.4 135.04"><defs><style>.cls-1{fill:#231f20;}</style></defs><title>ico_location</title><path class="cls-1" d="M72.13,12.4A40.82,40.82,0,0,1,84.4,42.2a54.91,54.91,0,0,1-2.11,14.51,114.11,114.11,0,0,1-7,17.93q-4.89,10.29-8.7,17.41T54.46,113.67Q46.15,128.19,42.2,135q-4-6.85-12.27-21.37T17.8,92.05Q14,84.93,9.1,74.64a113.13,113.13,0,0,1-7-17.93A54.5,54.5,0,0,1,0,42.2,40.59,40.59,0,0,1,12.4,12.4,40.59,40.59,0,0,1,42.2,0,40.47,40.47,0,0,1,72.13,12.4ZM54.2,54.2a16.31,16.31,0,0,0,4.88-12A16.46,16.46,0,0,0,54.2,30.33a16.1,16.1,0,0,0-12-5,16.21,16.21,0,0,0-11.87,5,16.23,16.23,0,0,0-5,11.87,16.09,16.09,0,0,0,5,12A16.4,16.4,0,0,0,42.2,59.08,16.29,16.29,0,0,0,54.2,54.2Z"/></svg>