<svg id="3e230f88-ca7e-4116-ba21-cef673e69f88" data-name="Layer 1" xmlns="http://www.w3.org/2000/svg" viewBox="0 0 132.68 134.42"><title>typo3Logo</title><path d="M100.39,92.63a18.4,18.4,0,0,1-5.66.79c-17.06,0-42.13-59.64-42.13-79.49,0-7.31,1.73-9.75,4.18-11.84-20.89,2.44-46,10.1-54,19.85C1,24.38,0,28.21,0,33.08c0,31,33.08,101.33,56.42,101.33,10.79,0,29-17.76,44-41.78h0Z" style="fill:#fff"/><path d="M89.49,0c21.59,0,43.19,3.48,43.19,15.67,0,24.73-15.67,54.67-23.68,54.67-14.28,0-32-39.7-32-59.55C77,1.74,80.45,0,89.49,0Z" style="fill:#fff"/></svg>